# File produced by Open Asset Import Library (http://www.assimp.sf.net)
# (assimp v3.1.187496374)

mtllib Ramp.obj.mtl

# 12 vertex positions
v  -10 30 0
v  -10 0 0
v  -10 30 10
v  -10 0 10
v  0 30 0
v  0 30 10
v  10 40 0
v  10 40 10
v  20 40 0
v  20 40 10
v  20 0 0
v  20 0 10

# 0 UV coordinates

# 7 vertex normals
vn -1 0 0
vn 0 1 0
vn -0.707107 0.707107 0
vn 1 0 0
vn 0 -1 0
vn 0 0 1
vn 0 0 -1

# Mesh 'ASCII' with 20 faces
g ASCII
usemtl DefaultMaterial
f  1//1 2//1 3//1
f  3//1 2//1 4//1
f  5//2 1//2 6//2
f  6//2 1//2 3//2
f  7//3 5//3 8//3
f  8//3 5//3 6//3
f  9//2 7//2 10//2
f  10//2 7//2 8//2
f  11//4 9//4 12//4
f  12//4 9//4 10//4
f  2//5 11//5 4//5
f  4//5 11//5 12//5
f  3//6 4//6 6//6
f  6//6 4//6 12//6
f  6//6 12//6 8//6
f  8//6 12//6 10//6
f  2//7 5//7 11//7
f  2//7 1//7 5//7
f  11//7 5//7 7//7
f  11//7 7//7 9//7

